<svg xmlns="http://www.w3.org/2000/svg" xmlns:xlink="http://www.w3.org/1999/xlink" width="500" zoomAndPan="magnify" viewBox="0 0 375 374.999991" height="500" preserveAspectRatio="xMidYMid meet" version="1.0"><defs><clipPath id="b49c89f26b"><path d="M 64 146 L 309 146 L 309 348.75 L 64 348.75 Z M 64 146 " clip-rule="nonzero"/></clipPath></defs><path fill="#28282f" d="M 76.769531 175.90625 C 75.832031 176.066406 75.058594 176.179688 74.289062 176.328125 C 71.089844 176.945312 67.894531 177.585938 64.691406 178.1875 C 63.972656 178.324219 63.574219 178.675781 63.324219 179.507812 C 61.808594 184.574219 60.269531 189.636719 58.664062 194.667969 C 56.847656 200.351562 55 206.023438 53.082031 211.664062 C 51.3125 216.867188 49.472656 222.042969 47.59375 227.195312 C 45.804688 232.097656 43.964844 236.976562 42.082031 241.832031 C 40.230469 246.617188 38.339844 251.382812 36.394531 256.121094 C 34.945312 259.652344 33.4375 263.15625 31.863281 266.617188 C 30.296875 270.0625 28.398438 273.273438 25.855469 275.910156 C 25.183594 276.609375 24.371094 277.195312 23.539062 277.625 C 21.960938 278.441406 20.367188 277.832031 19.226562 276.21875 C 19.011719 275.914062 18.605469 275.652344 18.261719 275.609375 C 16.382812 275.367188 15.335938 274.03125 15.675781 271.933594 C 16.289062 268.132812 17.027344 264.355469 17.707031 260.566406 C 18.15625 258.082031 18.503906 255.566406 19.054688 253.105469 C 20.929688 244.714844 22.921875 236.355469 24.78125 227.957031 C 26.636719 219.597656 28.378906 211.207031 30.1875 202.832031 C 31.480469 196.851562 32.800781 190.875 34.105469 184.894531 C 34.199219 184.457031 34.273438 184.011719 34.390625 183.375 C 32.738281 183.652344 31.230469 183.804688 29.761719 184.164062 C 26.734375 184.90625 23.710938 185.710938 20.707031 186.574219 C 18.464844 187.214844 16.222656 187.5625 13.953125 186.921875 C 11.601562 186.257812 9.761719 184.878906 9.160156 182.019531 C 9.019531 181.363281 8.699219 181.222656 8.191406 181.28125 C 6.3125 181.492188 4.554688 181.039062 2.898438 180.042969 C 1.15625 178.992188 0.0390625 177.4375 0.0234375 175.136719 C 0.00390625 172.792969 1.113281 171.164062 2.867188 170.078125 C 6.113281 168.066406 9.757812 167.558594 13.296875 166.789062 C 17.972656 165.777344 22.699219 165.0625 27.417969 164.324219 C 28.878906 164.09375 30.382812 164.238281 31.863281 164.132812 C 33.886719 163.988281 35.90625 163.753906 37.929688 163.585938 C 38.644531 163.527344 38.902344 163.09375 39.042969 162.339844 C 39.738281 158.59375 40.527344 154.867188 41.203125 151.117188 C 43.152344 140.300781 45.101562 129.484375 46.980469 118.652344 C 48.839844 107.933594 50.734375 97.21875 52.386719 86.457031 C 53.878906 76.734375 55.222656 66.972656 56.3125 57.183594 C 56.90625 51.820312 61.070312 48.152344 65.394531 47.589844 C 69.074219 47.113281 72.371094 48.164062 75.113281 50.878906 C 76.140625 51.898438 76.714844 53.550781 77.371094 54.984375 C 77.625 55.546875 77.792969 55.886719 78.390625 55.824219 C 81.179688 55.535156 83.710938 56.535156 86.152344 57.902344 C 89.296875 59.664062 91.140625 63.554688 90.507812 67.5625 C 89.605469 73.289062 88.546875 78.984375 87.535156 84.6875 C 87.121094 87.019531 86.726562 89.363281 86.191406 91.667969 C 84.394531 99.402344 82.59375 107.136719 80.691406 114.835938 C 78.929688 121.976562 77.035156 129.070312 75.207031 136.1875 C 73.511719 142.773438 71.828125 149.367188 70.140625 155.957031 C 70.046875 156.3125 69.988281 156.683594 69.878906 157.234375 C 70.902344 157.078125 71.78125 156.945312 72.65625 156.816406 C 75.535156 156.398438 78.40625 155.914062 81.292969 155.597656 C 82.332031 155.484375 82.761719 155.023438 83.035156 153.921875 C 83.695312 151.253906 84.4375 148.605469 85.226562 145.980469 C 87.144531 139.632812 89.046875 133.277344 91.070312 126.972656 C 92.726562 121.808594 94.351562 116.605469 96.359375 111.609375 C 98.195312 107.027344 99.207031 102.179688 100.644531 97.472656 C 102.875 90.171875 105.191406 82.90625 107.628906 75.695312 C 109.09375 71.371094 110.785156 67.136719 112.5 62.925781 C 114.4375 58.183594 116.476562 53.496094 118.542969 48.828125 C 120.289062 44.890625 122.101562 40.992188 123.96875 37.128906 C 124.921875 35.148438 125.960938 33.207031 127.117188 31.378906 C 129.992188 26.839844 136.753906 26.242188 140.546875 30.039062 C 141.601562 31.09375 142.402344 32.226562 142.578125 33.828125 C 142.667969 34.65625 143.152344 34.523438 143.648438 34.480469 C 145.835938 34.296875 147.972656 34.542969 149.789062 36.042969 C 151.519531 37.472656 153.007812 39.210938 152.832031 41.898438 C 152.769531 42.828125 152.4375 43.777344 152.074219 44.632812 C 150.632812 48.007812 149.132812 51.351562 147.640625 54.703125 C 145.59375 59.296875 143.492188 63.859375 141.492188 68.476562 C 139.796875 72.398438 138.1875 76.367188 136.589844 80.335938 C 134.535156 85.449219 132.472656 90.554688 130.515625 95.714844 C 128.742188 100.402344 126.992188 105.113281 125.4375 109.898438 C 123.316406 116.410156 121.414062 123.011719 119.371094 129.558594 C 117.578125 135.292969 115.664062 140.976562 113.917969 146.726562 C 112.632812 150.957031 111.542969 155.261719 110.347656 159.527344 C 110.160156 160.191406 110.234375 160.628906 110.820312 160.960938 C 112.429688 161.875 113.105469 163.59375 113.675781 165.375 C 113.761719 165.644531 113.726562 166.011719 113.644531 166.292969 C 112.695312 169.464844 110.539062 171.410156 108.078125 172.921875 C 107.277344 173.414062 106.886719 173.953125 106.695312 174.886719 C 105.585938 180.324219 104.425781 185.753906 103.339844 191.199219 C 101.902344 198.425781 100.464844 205.648438 99.128906 212.898438 C 98.367188 217.019531 97.789062 221.191406 97.167969 225.347656 C 96.203125 231.796875 95.179688 238.238281 94.355469 244.710938 C 93.722656 249.648438 93.363281 254.632812 92.875 259.597656 C 92.4375 264.058594 92.101562 268.535156 91.515625 272.96875 C 91.011719 276.769531 90.234375 280.53125 89.539062 284.300781 C 88.695312 288.855469 85.90625 291.011719 82.097656 291.792969 C 79.324219 292.363281 76.722656 291.679688 74.351562 290.03125 C 72.828125 288.976562 71.828125 287.367188 71.367188 285.402344 C 71.191406 284.648438 70.910156 284.386719 70.21875 284.472656 C 67.839844 284.769531 65.5625 284.1875 63.550781 282.820312 C 62.375 282.023438 61.4375 280.746094 60.460938 279.609375 C 60.113281 279.210938 59.894531 278.621094 59.71875 278.078125 C 58.402344 274 57.652344 269.785156 58.117188 265.453125 C 58.652344 260.421875 59.351562 255.40625 60.128906 250.414062 C 61.136719 243.949219 62.136719 237.476562 63.421875 231.082031 C 65.117188 222.636719 66.992188 214.234375 68.964844 205.867188 C 70.671875 198.632812 72.605469 191.46875 74.472656 184.28125 C 75.09375 181.894531 75.824219 179.542969 76.5 177.175781 C 76.601562 176.820312 76.65625 176.449219 76.769531 175.90625 Z M 54.640625 162.308594 C 54.746094 161.753906 54.796875 161.382812 54.890625 161.027344 C 56.164062 156.050781 57.492188 151.09375 58.714844 146.105469 C 60.566406 138.550781 62.453125 131.007812 64.136719 123.40625 C 66.019531 114.894531 67.851562 106.359375 69.410156 97.765625 C 70.964844 89.195312 71.945312 80.515625 72.257812 71.746094 C 72.414062 67.347656 72.816406 62.949219 73.296875 58.578125 C 73.765625 54.246094 72.191406 51.464844 68.394531 50.742188 C 64.886719 50.074219 61.152344 51.945312 60.539062 56.453125 C 59.722656 62.460938 58.859375 68.460938 58.003906 74.460938 C 56.359375 86.011719 54.699219 97.554688 52.359375 108.972656 C 50.15625 119.722656 48.347656 130.574219 46.3125 141.371094 C 44.933594 148.703125 43.480469 156.023438 42.015625 163.335938 C 41.894531 163.945312 41.511719 164.871094 41.125 164.964844 C 38.628906 165.5625 36.09375 166.394531 33.582031 166.339844 C 30.179688 166.269531 26.800781 166.371094 23.472656 167.007812 C 18.132812 168.03125 12.828125 169.296875 7.519531 170.527344 C 5.710938 170.949219 4.011719 171.664062 2.894531 173.558594 C 2.390625 174.414062 2.292969 175.292969 2.710938 176.078125 C 3.398438 177.367188 4.351562 178.519531 5.746094 178.671875 C 7.136719 178.824219 8.578125 178.84375 9.953125 178.601562 C 17.523438 177.25 25.070312 175.734375 32.648438 174.421875 C 34.835938 174.039062 37.019531 174.605469 39.152344 175.574219 C 39.039062 176.125 38.964844 176.582031 38.855469 177.027344 C 37.800781 181.421875 36.695312 185.804688 35.6875 190.214844 C 33.835938 198.289062 32.085938 206.390625 30.207031 214.457031 C 28.433594 222.066406 26.546875 229.644531 24.71875 237.238281 C 22.871094 244.917969 21.023438 252.59375 19.203125 260.28125 C 18.390625 263.714844 17.632812 267.164062 16.859375 270.605469 C 16.714844 271.25 16.5625 271.898438 16.492188 272.554688 C 16.363281 273.773438 17.019531 274.671875 18.097656 274.832031 C 19.222656 275 20.214844 274.476562 20.707031 273.210938 C 22.296875 269.15625 23.980469 265.132812 25.335938 260.976562 C 27.371094 254.726562 29.160156 248.375 31.046875 242.0625 C 32.820312 236.121094 34.648438 230.199219 36.34375 224.226562 C 38.316406 217.289062 40.191406 210.316406 42.074219 203.34375 C 42.910156 200.246094 43.636719 197.105469 44.472656 194.003906 C 45.59375 189.832031 46.753906 185.671875 47.941406 181.523438 C 48.058594 181.125 48.441406 180.683594 48.792969 180.542969 C 50.289062 179.945312 51.25 178.835938 51.597656 177.089844 C 51.882812 175.640625 52.109375 174.179688 52.386719 172.730469 C 52.796875 170.601562 52.804688 170.585938 54.644531 170.238281 C 62.375 168.773438 70.105469 167.3125 77.839844 165.875 C 79.492188 165.566406 81.164062 165.359375 82.992188 165.082031 C 82.84375 165.703125 82.761719 166.113281 82.648438 166.511719 C 81.71875 169.8125 80.730469 173.097656 79.859375 176.417969 C 78.042969 183.335938 76.191406 190.242188 74.53125 197.207031 C 72.535156 205.566406 70.539062 213.9375 68.871094 222.382812 C 66.929688 232.203125 65.3125 242.105469 63.613281 251.984375 C 63.105469 254.933594 62.753906 257.917969 62.425781 260.902344 C 61.929688 265.40625 61.59375 269.921875 62.324219 274.445312 C 62.632812 276.355469 63.1875 278.0625 64.507812 279.46875 C 66.386719 281.472656 69.539062 282.09375 71.929688 280.710938 C 74.164062 279.417969 74.886719 277.339844 74.464844 273.957031 C 74.269531 272.386719 74.203125 270.765625 74.296875 269.183594 C 74.421875 267.011719 74.734375 264.855469 75.003906 262.699219 C 76.648438 249.484375 77.945312 236.210938 80.742188 223.203125 C 82.617188 214.488281 84.207031 205.695312 86.136719 196.996094 C 88.164062 187.84375 90.449219 178.761719 92.621094 169.648438 C 92.847656 168.703125 93.046875 167.75 93.335938 166.832031 C 93.425781 166.558594 93.777344 166.207031 94.015625 166.199219 C 97.300781 166.128906 99.980469 164.460938 102.394531 162.136719 C 103.160156 161.402344 103.378906 160.359375 103.113281 159.257812 C 102.757812 157.765625 101.671875 157.109375 100.515625 156.679688 C 99.75 156.398438 98.90625 156.390625 98.007812 156.246094 C 98.066406 155.769531 98.074219 155.296875 98.1875 154.859375 C 99.671875 149.105469 101.117188 143.332031 102.6875 137.605469 C 104.53125 130.867188 106.484375 124.164062 108.402344 117.449219 C 110.140625 111.371094 111.480469 105.152344 114.011719 99.371094 C 115.996094 94.835938 117.617188 90.101562 119.453125 85.480469 C 121.242188 80.964844 123.089844 76.480469 124.921875 71.988281 C 126.816406 67.351562 128.746094 62.734375 130.625 58.09375 C 132.488281 53.484375 134.332031 48.867188 136.132812 44.226562 C 137.148438 41.617188 138.089844 38.96875 139.019531 36.320312 C 139.789062 34.117188 139.113281 32.109375 137.28125 30.945312 C 134.570312 29.222656 130.835938 30.246094 129.285156 33.28125 C 127.511719 36.753906 125.8125 40.28125 124.171875 43.835938 C 121.921875 48.707031 119.714844 53.605469 117.570312 58.539062 C 116.054688 62.035156 114.597656 65.570312 113.246094 69.152344 C 111.183594 74.601562 109.105469 80.046875 107.277344 85.597656 C 105.390625 91.332031 103.871094 97.21875 102.050781 102.980469 C 100.339844 108.410156 98.402344 113.75 96.636719 119.160156 C 94.679688 125.15625 92.742188 131.167969 90.910156 137.214844 C 89.011719 143.488281 87.234375 149.804688 85.445312 156.117188 C 85.21875 156.917969 84.875 157.183594 84.15625 157.289062 C 78.847656 158.058594 73.539062 158.824219 68.246094 159.71875 C 63.777344 160.476562 59.328125 161.410156 54.640625 162.308594 Z M 54.640625 162.308594 " fill-opacity="1" fill-rule="nonzero"/><g clip-path="url(#b49c89f26b)"><path fill="#28282f" d="M 152.027344 247.582031 C 150.339844 247.105469 148.734375 246.683594 147.144531 246.191406 C 144.371094 245.328125 141.933594 243.667969 139.753906 241.628906 C 138.597656 240.546875 137.34375 239.855469 136.003906 239.234375 C 135.433594 238.972656 134.84375 238.730469 134.304688 238.390625 C 130.324219 235.875 127.28125 232.371094 125.074219 227.800781 C 121.585938 220.585938 120.390625 212.75 119.894531 204.738281 C 119.328125 195.644531 120.484375 186.648438 121.53125 177.660156 C 122.074219 172.976562 122.554688 168.28125 122.980469 163.582031 C 123.234375 160.753906 124.1875 159.542969 126.648438 158.808594 C 128.324219 158.308594 131.316406 159.253906 132.109375 161.566406 C 132.242188 161.953125 132.875 162.269531 133.3125 162.351562 C 134.769531 162.617188 136.253906 162.878906 137.109375 164.390625 C 137.617188 165.285156 137.988281 166.359375 138.148438 167.40625 C 138.84375 171.886719 138.933594 176.402344 138.554688 180.925781 C 138.539062 181.121094 138.511719 181.316406 138.507812 181.507812 C 138.429688 185.019531 138.207031 188.535156 138.308594 192.039062 C 138.523438 199.636719 138.589844 207.300781 140.769531 214.601562 C 141.964844 218.609375 143.597656 222.453125 145.046875 226.363281 C 145.132812 226.605469 145.3125 226.800781 145.582031 227.234375 C 146.308594 226.304688 147.132812 225.554688 147.605469 224.585938 C 148.648438 222.4375 149.648438 220.234375 150.433594 217.953125 C 153 210.472656 154.5625 202.667969 156.027344 194.839844 C 156.515625 192.238281 156.894531 189.613281 157.449219 187.035156 C 159.359375 178.171875 160.246094 169.132812 161.085938 160.085938 C 161.265625 158.191406 161.347656 156.253906 161.21875 154.355469 C 160.871094 149.285156 163.820312 146.828125 167.679688 146.207031 C 170.34375 145.777344 172.675781 146.867188 174.628906 148.832031 C 175.285156 149.488281 175.671875 150.558594 176.023438 151.511719 C 176.265625 152.164062 176.511719 152.316406 177.125 152.390625 C 178.652344 152.570312 180.234375 152.722656 181.652344 153.3125 C 183.523438 154.09375 184.613281 155.859375 185.257812 158.023438 C 186.101562 160.851562 185.726562 163.75 185.621094 166.589844 C 185.492188 170.03125 184.980469 173.453125 184.597656 176.878906 C 183.984375 182.296875 183.320312 187.707031 182.722656 193.128906 C 182.390625 196.105469 182.171875 199.097656 181.875 202.078125 C 181.410156 206.765625 181.078125 211.480469 180.410156 216.128906 C 179.125 225.089844 177.664062 234.019531 176.234375 242.953125 C 175.765625 245.871094 175.1875 248.769531 174.601562 251.660156 C 174.347656 252.929688 173.941406 254.160156 173.53125 255.671875 C 174.277344 255.515625 174.769531 255.4375 175.253906 255.304688 C 183.707031 252.984375 192.117188 250.429688 200.625 248.382812 C 211.027344 245.878906 221.507812 243.820312 231.953125 241.542969 C 242.023438 239.34375 252.085938 237.117188 262.152344 234.902344 C 269.984375 233.179688 277.789062 231.28125 285.765625 230.628906 C 287.378906 230.496094 289.011719 230.554688 290.632812 230.617188 C 292.773438 230.703125 294.710938 231.617188 296.328125 233.117188 C 297.132812 233.855469 297.761719 235.0625 298.066406 236.199219 C 298.351562 237.265625 298.726562 237.410156 299.5625 237.339844 C 301.652344 237.164062 303.621094 237.625 305.363281 239.027344 C 307.824219 241.011719 308.789062 243.792969 307.652344 246.5 C 307.128906 247.746094 306.183594 248.886719 305.195312 249.71875 C 304.027344 250.699219 302.664062 251.515625 301.277344 252.023438 C 294.183594 254.628906 287.074219 257.179688 279.9375 259.613281 C 269.734375 263.089844 259.320312 265.507812 248.796875 267.339844 C 239.308594 268.988281 229.792969 270.472656 220.332031 272.3125 C 212.507812 273.835938 204.726562 275.667969 196.960938 277.542969 C 186.898438 279.976562 176.871094 282.601562 166.824219 285.105469 C 165.910156 285.332031 165.480469 285.84375 165.097656 286.800781 C 162.835938 292.445312 160.613281 298.121094 158.121094 303.636719 C 156.574219 307.058594 154.660156 310.289062 152.746094 313.480469 C 151.085938 316.25 149.296875 318.941406 147.386719 321.496094 C 144.0625 325.933594 140.449219 330.078125 136.3125 333.558594 C 131.257812 337.816406 125.824219 341.371094 119.902344 343.878906 C 112.898438 346.84375 105.691406 348.730469 98.160156 348.640625 C 93.855469 348.589844 89.605469 347.996094 85.523438 346.382812 C 82.796875 345.308594 80.386719 343.625 78.238281 341.378906 C 77.402344 340.503906 76.148438 340.101562 75.046875 339.597656 C 67.058594 335.9375 63.242188 328.996094 65.351562 319.105469 C 66.015625 315.996094 67.179688 313.089844 68.792969 310.5 C 70.4375 307.863281 72.167969 305.242188 74.167969 302.953125 C 79.183594 297.222656 84.828125 292.335938 90.960938 288.226562 C 93.953125 286.222656 97.039062 284.339844 100.226562 282.777344 C 107.316406 279.300781 114.398438 275.757812 121.664062 272.816406 C 129.75 269.539062 138.015625 266.84375 146.242188 264.039062 C 147.550781 263.59375 148.175781 262.972656 148.523438 261.527344 C 149.546875 257.269531 150.6875 253.046875 151.777344 248.808594 C 151.882812 248.402344 151.945312 247.988281 152.027344 247.582031 Z M 159.546875 262.90625 C 159.714844 262.214844 159.820312 261.773438 159.929688 261.335938 C 161.1875 256.308594 162.65625 251.335938 163.660156 246.246094 C 165.621094 236.277344 167.394531 226.253906 169.097656 216.222656 C 169.890625 211.550781 170.386719 206.8125 170.933594 202.09375 C 171.878906 193.964844 172.527344 185.804688 172.679688 177.59375 C 172.765625 172.835938 172.957031 168.082031 173.085938 163.324219 C 173.179688 159.816406 173.355469 156.308594 173.289062 152.804688 C 173.246094 150.351562 171.851562 148.730469 169.75 148.265625 C 166.882812 147.632812 163.796875 149.414062 164.117188 153.363281 C 164.207031 154.449219 164.238281 155.558594 164.148438 156.640625 C 163.847656 160.164062 163.511719 163.6875 163.121094 167.195312 C 162.714844 170.839844 162.292969 174.480469 161.765625 178.101562 C 160.5625 186.378906 159.335938 194.648438 157.269531 202.726562 C 156.628906 205.238281 156.171875 207.8125 155.574219 210.335938 C 154.378906 215.394531 153.089844 220.414062 150.503906 224.847656 C 149.988281 225.726562 149.480469 226.617188 148.898438 227.433594 C 147.078125 229.980469 144.226562 231.226562 141.445312 229.871094 C 138.378906 228.375 136.371094 225.703125 134.78125 222.648438 C 132.140625 217.574219 131.089844 211.824219 130.023438 206.15625 C 129.449219 203.09375 129.371094 199.878906 129.339844 196.730469 C 129.273438 190.339844 129.351562 183.945312 130.351562 177.613281 C 130.636719 175.816406 130.730469 173.964844 130.773438 172.132812 C 130.839844 169.011719 130.855469 165.882812 130.769531 162.765625 C 130.726562 161.171875 129.378906 159.964844 127.875 159.882812 C 126.328125 159.792969 125.144531 160.675781 124.832031 162.253906 C 124.613281 163.347656 124.476562 164.46875 124.371094 165.585938 C 123.871094 170.824219 123.417969 176.066406 122.898438 181.300781 C 122.09375 189.378906 121.507812 197.460938 122.078125 205.601562 C 122.5625 212.476562 124.085938 219.03125 126.667969 225.265625 C 127.679688 227.710938 128.898438 229.980469 130.660156 231.886719 C 132.417969 233.792969 134.230469 235.496094 136.464844 236.6875 C 143.859375 240.625 151.929688 238.675781 157.148438 231.578125 C 157.417969 231.214844 157.765625 230.925781 158.074219 230.601562 C 158.175781 231.292969 158.113281 231.863281 157.980469 232.414062 C 157.835938 233.007812 157.570312 233.570312 157.449219 234.171875 C 155.84375 242.113281 154.417969 250.105469 151.957031 257.800781 C 151.242188 260.035156 150.660156 262.332031 150.085938 264.621094 C 149.851562 265.566406 149.414062 265.992188 148.585938 266.269531 C 140.449219 269.007812 132.265625 271.589844 124.222656 274.648438 C 118.246094 276.917969 112.429688 279.753906 106.589844 282.476562 C 101.195312 284.988281 95.890625 287.792969 91.011719 291.414062 C 87.019531 294.378906 83.257812 297.765625 79.515625 301.140625 C 77.882812 302.613281 76.566406 304.53125 75.089844 306.230469 C 71.992188 309.789062 69.710938 314.011719 68.359375 318.675781 C 66.375 325.527344 67.695312 330.402344 72.285156 334.738281 C 72.996094 335.40625 73.800781 335.984375 74.636719 336.4375 C 79.121094 338.863281 83.925781 339.6875 88.832031 339.691406 C 99.945312 339.703125 110.199219 336.0625 119.800781 329.929688 C 123.710938 327.433594 127.296875 324.363281 130.558594 320.871094 C 132.554688 318.730469 134.457031 316.449219 136.222656 314.0625 C 138.1875 311.40625 140.046875 308.632812 141.78125 305.777344 C 143.671875 302.664062 145.519531 299.492188 147.117188 296.179688 C 149.261719 291.734375 151.203125 287.160156 153.121094 282.582031 C 154.066406 280.328125 154.816406 277.960938 155.539062 275.601562 C 155.851562 274.582031 156.34375 274.125 157.246094 273.882812 C 167.21875 271.191406 177.175781 268.433594 187.152344 265.753906 C 192.023438 264.445312 196.890625 263.082031 201.808594 262.054688 C 213.21875 259.679688 224.648438 257.445312 236.082031 255.238281 C 247.628906 253.007812 259.054688 250.160156 270.425781 246.996094 C 275.417969 245.609375 280.449219 244.402344 285.464844 243.101562 C 287.816406 242.492188 290.210938 242.019531 292.5 241.183594 C 294.390625 240.496094 295.453125 238.511719 295.269531 236.84375 C 295.070312 235.050781 293.648438 233.582031 291.675781 233.15625 C 291.375 233.09375 291.058594 233.074219 290.75 233.089844 C 288.714844 233.199219 286.648438 233.101562 284.65625 233.484375 C 277.171875 234.925781 269.703125 236.476562 262.242188 238.085938 C 249.863281 240.753906 237.519531 243.625 225.121094 246.175781 C 213.535156 248.558594 201.960938 250.960938 190.519531 254.125 C 181.796875 256.535156 173.101562 259.046875 164.394531 261.515625 C 162.859375 261.949219 161.328125 262.394531 159.546875 262.90625 Z M 159.546875 262.90625 " fill-opacity="1" fill-rule="nonzero"/></g><path fill="#28282f" d="M 274.609375 226.933594 C 271.230469 226.984375 266.824219 226.355469 262.558594 224.742188 C 259.894531 223.734375 257.457031 222.238281 255.253906 220.207031 C 254.371094 219.394531 253.222656 218.902344 252.148438 218.398438 C 250.1875 217.480469 248.546875 216.082031 247.179688 214.285156 C 243.679688 209.691406 243.160156 203.941406 245.953125 198.675781 C 247.5625 195.640625 249.246094 192.589844 251.296875 189.941406 C 254.792969 185.4375 258.480469 181.101562 262.316406 176.964844 C 265.773438 173.226562 269.492188 169.789062 273.175781 166.332031 C 276.890625 162.847656 280.640625 159.402344 284.492188 156.125 C 288.015625 153.125 291.605469 150.195312 295.339844 147.554688 C 299.96875 144.28125 304.832031 141.46875 310.296875 140.34375 C 313.824219 139.621094 317.277344 139.9375 320.453125 141.929688 C 321.507812 142.589844 322.320312 143.738281 323.265625 144.632812 C 323.644531 144.992188 324.050781 145.355469 324.5 145.570312 C 326.109375 146.347656 327.800781 146.9375 329.355469 147.828125 C 331.28125 148.9375 332.515625 152.210938 332.109375 154.699219 C 331.699219 157.234375 330.59375 159.34375 329.003906 161.171875 C 328.347656 161.921875 327.8125 162.800781 327.171875 163.5625 C 322.8125 168.75 317.699219 172.835938 312.285156 176.46875 C 310.390625 177.742188 308.488281 179.027344 306.503906 180.105469 C 302.617188 182.214844 298.722656 184.320312 294.742188 186.179688 C 288.53125 189.082031 282.027344 190.613281 275.308594 191.015625 C 274.679688 191.054688 273.875 191.347656 273.484375 191.851562 C 270.117188 196.175781 266.488281 200.289062 264.152344 205.515625 C 263.625 206.695312 263.125 207.890625 262.664062 209.105469 C 262.234375 210.234375 262.589844 210.847656 263.703125 210.914062 C 268.734375 211.21875 273.65625 210.328125 278.402344 208.582031 C 283.746094 206.621094 289.058594 204.488281 294.246094 202.058594 C 300.234375 199.257812 306.097656 196.09375 311.976562 193.003906 C 317.484375 190.113281 322.933594 187.085938 328.429688 184.167969 C 333.957031 181.234375 339.488281 178.304688 345.0625 175.480469 C 349.117188 173.417969 353.257812 171.558594 357.332031 169.546875 C 358.878906 168.78125 360.320312 167.773438 362.109375 167.816406 C 364.835938 167.882812 366.523438 169.171875 367.566406 172.042969 C 367.660156 172.304688 368.140625 172.550781 368.429688 172.527344 C 370.273438 172.402344 371.878906 172.925781 373.324219 174.289062 C 374.984375 175.851562 374.996094 178.746094 373.515625 180.578125 C 370.808594 183.921875 367.273438 185.839844 363.882812 187.96875 C 358.0625 191.621094 352.136719 195.0625 346.234375 198.550781 C 342.996094 200.464844 339.730469 202.332031 336.449219 204.152344 C 330.597656 207.40625 324.78125 210.75 318.84375 213.792969 C 311.636719 217.480469 304.175781 220.460938 296.605469 223.050781 C 289.800781 225.378906 282.863281 226.882812 274.609375 226.933594 Z M 266.074219 212.792969 C 262.992188 212.929688 260.023438 212.351562 257.132812 211.148438 C 254.570312 210.085938 253.203125 207.527344 253.734375 204.492188 C 253.890625 203.621094 254.066406 202.695312 254.457031 201.945312 C 255.628906 199.710938 256.773438 197.429688 258.183594 195.390625 C 260.128906 192.570312 262.292969 189.9375 264.398438 187.265625 C 264.621094 186.984375 265.109375 186.84375 265.472656 186.855469 C 266.710938 186.882812 267.957031 187.148438 269.1875 187.066406 C 277.0625 186.539062 284.449219 183.945312 291.441406 179.921875 C 295.066406 177.839844 298.660156 175.648438 302.09375 173.191406 C 307.050781 169.640625 311.753906 165.671875 315.890625 160.925781 C 316.59375 160.117188 317.199219 159.199219 317.925781 158.421875 C 319.796875 156.421875 321.097656 154.003906 321.964844 151.304688 C 323.085938 147.804688 321.539062 144.214844 318.457031 142.9375 C 315.804688 141.835938 313.097656 141.546875 310.3125 142.21875 C 304.816406 143.542969 299.921875 146.429688 295.269531 149.816406 C 291.539062 152.53125 287.925781 155.480469 284.386719 158.515625 C 280.488281 161.863281 276.691406 165.363281 272.941406 168.917969 C 269.320312 172.34375 265.714844 175.804688 262.292969 179.480469 C 259.375 182.621094 256.71875 186.074219 253.972656 189.414062 C 253.316406 190.214844 252.804688 191.164062 252.148438 191.964844 C 249.980469 194.605469 248.398438 197.65625 247.238281 200.972656 C 245.414062 206.179688 246.34375 211.128906 249.960938 214.472656 C 251.421875 215.824219 253.226562 216.824219 255.011719 217.585938 C 260.324219 219.855469 265.859375 220.046875 271.453125 219.445312 C 278.3125 218.710938 284.925781 216.730469 291.324219 213.976562 C 298.703125 210.796875 306.015625 207.390625 313.242188 203.792969 C 318.890625 200.980469 324.367188 197.730469 329.917969 194.671875 C 335.375 191.660156 340.832031 188.644531 346.285156 185.621094 C 351.734375 182.59375 357.191406 179.582031 362.613281 176.492188 C 363.484375 175.996094 364.296875 175.226562 364.933594 174.386719 C 366.113281 172.835938 365.699219 170.921875 364.074219 170 C 362.605469 169.171875 361.140625 169.300781 359.710938 170.195312 C 358.925781 170.6875 358.144531 171.191406 357.324219 171.605469 C 354.902344 172.832031 352.441406 173.972656 350.027344 175.222656 C 344.753906 177.941406 339.484375 180.675781 334.238281 183.464844 C 328.589844 186.46875 322.972656 189.5625 317.328125 192.582031 C 311.875 195.503906 306.464844 198.554688 300.921875 201.238281 C 295.152344 204.03125 289.28125 206.582031 283.382812 209.003906 C 277.808594 211.289062 272.039062 212.683594 266.074219 212.792969 Z M 266.074219 212.792969 " fill-opacity="1" fill-rule="nonzero"/><path fill="#28282f" d="M 192.167969 208.875 C 191.394531 208.789062 190.738281 208.773438 190.101562 208.640625 C 188.058594 208.210938 186.511719 206.90625 185.3125 205.039062 C 184.6875 204.066406 184.695312 201.65625 185.332031 200.640625 C 186.9375 198.078125 188.832031 195.851562 191.113281 194.03125 C 192.183594 193.179688 193.175781 192.1875 194.132812 191.175781 C 194.421875 190.867188 194.578125 190.304688 194.640625 189.832031 C 195.210938 185.621094 195.804688 181.414062 196.277344 177.191406 C 196.808594 172.484375 197.246094 167.761719 197.664062 163.039062 C 197.839844 161.046875 197.738281 159.085938 196.917969 157.207031 C 196.328125 155.859375 196.191406 154.375 196.90625 152.976562 C 197.300781 152.203125 197.644531 151.335938 198.203125 150.75 C 201.082031 147.730469 203.890625 144.601562 206.964844 141.855469 C 213.816406 135.734375 221.648438 131.734375 229.96875 128.863281 C 235.480469 126.960938 241.089844 125.710938 246.839844 125.351562 C 252.847656 124.972656 258.699219 125.855469 263.945312 129.332031 C 266.636719 131.117188 269.265625 133.015625 272.015625 134.703125 C 274.707031 136.355469 276.851562 138.710938 277.429688 142.273438 C 277.835938 144.769531 277.839844 147.3125 276.796875 149.71875 C 274.84375 154.230469 271.691406 157.5 268.261719 160.5 C 267.742188 160.953125 267.246094 161.453125 266.695312 161.847656 C 261.628906 165.476562 256.550781 169.078125 251.484375 172.714844 C 248.136719 175.117188 244.761719 177.488281 241.476562 180.003906 C 237.652344 182.929688 233.890625 185.960938 230.144531 189.019531 C 227.101562 191.503906 224.121094 194.09375 221.125 196.652344 C 219.335938 198.179688 217.539062 199.695312 215.808594 201.300781 C 215.308594 201.761719 214.902344 202.472656 214.675781 203.160156 C 212.464844 209.796875 210.480469 216.539062 208.066406 223.078125 C 206.570312 227.121094 204.519531 230.910156 202.558594 234.710938 C 201.789062 236.195312 200.648438 237.464844 199.558594 238.695312 C 198.332031 240.085938 196.761719 240.496094 195.054688 240.125 C 193.945312 239.882812 193.128906 239.191406 192.554688 238.050781 C 192.367188 237.683594 191.859375 237.335938 191.480469 237.3125 C 188.835938 237.128906 187.339844 235.265625 187.832031 232.332031 C 188.394531 228.960938 189.214844 225.644531 189.855469 222.285156 C 190.628906 218.214844 191.324219 214.128906 192.050781 210.046875 C 192.109375 209.710938 192.121094 209.363281 192.167969 208.875 Z M 194.414062 206.625 C 194.414062 206.898438 194.460938 207.246094 194.40625 207.574219 C 193.851562 210.871094 193.328125 214.175781 192.699219 217.457031 C 192.214844 220.011719 191.632812 222.546875 191.023438 225.070312 C 190.390625 227.691406 189.570312 230.261719 189.019531 232.90625 C 188.664062 234.613281 189.339844 235.761719 190.535156 236.179688 C 191.949219 236.675781 193.28125 236.082031 193.917969 234.546875 C 194.960938 232.050781 196.152344 229.597656 196.894531 226.984375 C 198.890625 219.9375 200.738281 212.832031 202.53125 205.71875 C 203.304688 202.644531 203.761719 199.46875 204.453125 196.363281 C 204.605469 195.675781 205.03125 194.933594 205.523438 194.5 C 208.160156 192.183594 210.84375 189.925781 213.546875 187.703125 C 217.5625 184.402344 221.589844 181.121094 225.648438 177.886719 C 228.550781 175.574219 231.496094 173.324219 234.460938 171.109375 C 236.359375 169.691406 238.308594 168.355469 240.269531 167.046875 C 244.546875 164.199219 248.882812 161.460938 253.121094 158.542969 C 256.390625 156.292969 259.609375 153.960938 262.496094 151.054688 C 264.511719 149.023438 266.277344 146.835938 267.449219 144.101562 C 267.964844 142.894531 268.546875 141.554688 268.550781 140.277344 C 268.558594 137.640625 267.558594 135.335938 265.964844 133.367188 C 264.324219 131.335938 262.179688 130.25 260.003906 129.261719 C 255.238281 127.101562 250.246094 126.839844 245.21875 127.371094 C 235.652344 128.382812 226.636719 131.609375 218.050781 136.394531 C 213.917969 138.695312 210.117188 141.625 206.664062 145.054688 C 204.367188 147.335938 202.3125 149.933594 200.210938 152.449219 C 199.273438 153.574219 199.078125 155.03125 199.707031 156.382812 C 200.609375 158.328125 200.609375 160.363281 200.503906 162.4375 C 200.019531 172.011719 198.46875 181.421875 197.0625 190.851562 C 197 191.25 196.867188 191.746094 196.613281 191.976562 C 194.625 193.773438 192.53125 195.433594 190.601562 197.304688 C 189.460938 198.40625 188.417969 199.710938 187.585938 201.121094 C 186.605469 202.785156 187.070312 204.765625 188.585938 205.808594 C 189.355469 206.339844 190.292969 206.695312 191.1875 206.804688 C 192.222656 206.933594 193.292969 206.703125 194.414062 206.625 Z M 194.414062 206.625 " fill-opacity="1" fill-rule="nonzero"/><path fill="#28282f" d="M 145.839844 277.6875 C 144.195312 281.402344 142.582031 285.136719 140.894531 288.828125 C 139.816406 291.1875 138.75 293.570312 137.472656 295.792969 C 135.273438 299.613281 133.007812 303.394531 130.597656 307.042969 C 128.972656 309.5 127.132812 311.800781 125.230469 313.996094 C 121.90625 317.820312 118.203125 321.148438 114.039062 323.726562 C 107.203125 327.964844 99.894531 330.589844 92.105469 331.246094 C 88.195312 331.578125 84.308594 331.289062 80.578125 329.65625 C 78.621094 328.800781 77.527344 327.226562 77.414062 324.910156 C 77.234375 321.148438 78.488281 317.898438 80.503906 314.988281 C 81.84375 313.054688 83.0625 310.964844 84.621094 309.28125 C 90.007812 303.457031 95.972656 298.519531 102.742188 294.902344 C 105.832031 293.253906 108.886719 291.484375 112.074219 290.121094 C 119.722656 286.851562 127.417969 283.714844 135.140625 280.675781 C 138.296875 279.433594 141.574219 278.582031 144.800781 277.558594 C 145.023438 277.488281 145.261719 277.460938 145.492188 277.414062 C 145.605469 277.503906 145.722656 277.59375 145.839844 277.6875 Z M 134.785156 295.429688 C 134.707031 295.34375 134.625 295.257812 134.546875 295.171875 C 132.246094 296.097656 129.933594 296.984375 127.648438 297.949219 C 121.046875 300.726562 114.4375 303.492188 108.425781 307.738281 C 106.46875 309.121094 104.566406 310.609375 102.679688 312.109375 C 99.367188 314.742188 96.277344 317.664062 93.875 321.394531 C 92.902344 322.902344 91.996094 324.46875 91.15625 326.074219 C 90.730469 326.890625 90.515625 327.84375 90.199219 328.75 C 90.4375 328.859375 90.527344 328.933594 90.621094 328.9375 C 90.898438 328.953125 91.175781 328.953125 91.449219 328.933594 C 99.855469 328.320312 107.609375 325.355469 114.757812 320.394531 C 118.65625 317.691406 122.058594 314.234375 125.070312 310.371094 C 127.460938 307.308594 129.597656 303.984375 131.757812 300.707031 C 132.867188 299.03125 133.78125 297.195312 134.785156 295.429688 Z M 134.785156 295.429688 " fill-opacity="1" fill-rule="nonzero"/><path fill="#28282f" d="M 268.585938 182.492188 C 270.316406 180.734375 272.042969 178.976562 273.78125 177.226562 C 274.242188 176.761719 274.738281 176.34375 275.214844 175.894531 C 278.265625 173.03125 281.257812 170.085938 284.382812 167.324219 C 287.992188 164.136719 291.617188 160.945312 295.429688 158.078125 C 298.777344 155.558594 302.316406 153.328125 305.90625 151.277344 C 308.128906 150.003906 310.5 148.886719 313.089844 148.832031 C 314.75 148.796875 314.890625 149.09375 314.296875 150.871094 C 313.503906 153.246094 311.925781 154.972656 310.484375 156.78125 C 306.355469 161.96875 301.496094 166.21875 296.371094 170.050781 C 293.671875 172.066406 290.820312 173.828125 288.003906 175.636719 C 282.453125 179.191406 276.523438 181.539062 270.207031 182.621094 C 269.71875 182.707031 269.222656 182.761719 268.730469 182.828125 C 268.679688 182.714844 268.632812 182.605469 268.585938 182.492188 Z M 268.585938 182.492188 " fill-opacity="1" fill-rule="nonzero"/><path fill="#28282f" d="M 207.113281 182.871094 C 207.621094 180.28125 208.105469 178.03125 208.492188 175.757812 C 209.457031 170.121094 210.351562 164.464844 210.375 158.703125 C 210.382812 157.253906 210.035156 155.777344 209.707031 154.355469 C 209.554688 153.683594 209.621094 153.265625 210.011719 152.792969 C 212.613281 149.628906 215.59375 147 218.886719 144.835938 C 220.882812 143.523438 222.902344 142.242188 224.992188 141.140625 C 231.894531 137.496094 239.144531 135.179688 246.738281 134.339844 C 250.261719 133.949219 253.777344 133.996094 257.144531 135.535156 C 257.367188 135.636719 257.609375 135.691406 257.828125 135.800781 C 261.269531 137.503906 261.902344 139.980469 259.636719 143.351562 C 257.523438 146.503906 254.664062 148.695312 251.710938 150.726562 C 250.707031 151.417969 249.734375 152.160156 248.71875 152.828125 C 244.429688 155.660156 240.105469 158.417969 235.847656 161.304688 C 232.125 163.824219 228.425781 166.40625 224.796875 169.097656 C 221.027344 171.898438 217.339844 174.851562 213.632812 177.761719 C 211.820312 179.183594 210.046875 180.667969 208.25 182.113281 C 207.957031 182.351562 207.628906 182.53125 207.113281 182.871094 Z M 223.230469 167.472656 C 223.703125 167.203125 224.171875 166.972656 224.601562 166.675781 C 228.75 163.8125 232.878906 160.90625 237.046875 158.078125 C 240.003906 156.066406 242.988281 154.105469 246.003906 152.214844 C 250.144531 149.617188 254.191406 146.894531 257.539062 143.035156 C 257.882812 142.636719 258.117188 142.113281 258.5 141.484375 C 257.730469 141.484375 257.15625 141.429688 256.589844 141.496094 C 251.523438 142.074219 246.550781 143.1875 241.738281 145.097656 C 239.621094 145.9375 237.527344 146.847656 235.449219 147.796875 C 230.476562 150.074219 226.042969 153.332031 222.007812 157.300781 C 221.535156 157.765625 221.535156 158.125 221.910156 158.671875 C 222.878906 160.078125 223.292969 161.695312 223.238281 163.488281 C 223.199219 164.769531 223.230469 166.050781 223.230469 167.472656 Z M 223.230469 167.472656 " fill-opacity="1" fill-rule="nonzero"/></svg>